{"asset":{"version":"2.0","generator":"THREE.GLTFExporter"},"scenes":[{"name":"default","nodes":[0]}],"scene":0,"nodes":[{"name":"default","mesh":0}],"bufferViews":[{"buffer":0,"byteOffset":0,"byteLength":2988,"target":34962,"byteStride":12},{"buffer":0,"byteOffset":2988,"byteLength":2988,"target":34962,"byteStride":12},{"buffer":0,"byteOffset":5976,"byteLength":1992,"target":34962,"byteStride":8},{"buffer":0,"byteOffset":7968,"byteLength":744,"target":34963}],"buffers":[{"byteLength":8712,"uri":"data:application/octet-stream;base64,"}],"accessors":[{"bufferView":0,"componentType":5126,"count":249,"max":[3.25,0.75,3.25],"min":[-3.25,-0.5,-3.25],"type":"VEC3"},{"bufferView":1,"componentType":5126,"count":249,"max":[0.8944271802902222,1,0.8944271802902222],"min":[-0.8944271802902222,0.4472135901451111,-0.8944271802902222],"type":"VEC3"},{"bufferView":2,"componentType":5126,"count":249,"max":[0.625,0.75],"min":[0.0625,0],"type":"VEC2"},{"bufferView":3,"componentType":5123,"count":372,"max":[248],"min":[0],"type":"SCALAR"}],"materials":[{"pbrMetallicRoughness":{"metallicFactor":0,"roughnessFactor":1,"baseColorTexture":{"index":0}},"alphaMode":"MASK","alphaCutoff":0.01,"doubleSided":true,"name":"texture_2"}],"textures":[{"sampler":0,"source":0,"name":"texture_2"}],"samplers":[{"magFilter":9728,"minFilter":9728,"wrapS":33071,"wrapT":33071}],"images":[{"mimeType":"image/png","uri":"data:image/png;base64,"}],"meshes":[{"primitives":[{"mode":4,"attributes":{"POSITION":0,"NORMAL":1,"TEXCOORD_0":2},"indices":3,"material":0}]}]}