{"asset":{"version":"2.0","generator":"THREE.GLTFExporter"},"scenes":[{"name":"default","nodes":[0]}],"scene":0,"nodes":[{"name":"default","mesh":0}],"bufferViews":[{"buffer":0,"byteOffset":0,"byteLength":10584,"target":34962,"byteStride":12},{"buffer":0,"byteOffset":10584,"byteLength":10584,"target":34962,"byteStride":12},{"buffer":0,"byteOffset":21168,"byteLength":7056,"target":34962,"byteStride":8},{"buffer":0,"byteOffset":28224,"byteLength":1764,"target":34963}],"buffers":[{"byteLength":29988,"uri":"data:application/octet-stream;base64,"}],"accessors":[{"bufferView":0,"componentType":5126,"count":882,"max":[5.25,1.5,5.25],"min":[-5.25,0,-5.25],"type":"VEC3"},{"bufferView":1,"componentType":5126,"count":882,"max":[0.8944271802902222,1,0.8944271802902222],"min":[-0.8944271802902222,0.4472135901451111,-0.8944271802902222],"type":"VEC3"},{"bufferView":2,"componentType":5126,"count":882,"max":[0.625,0.75],"min":[0.0625,0],"type":"VEC2"},{"bufferView":3,"componentType":5123,"count":882,"max":[881],"min":[0],"type":"SCALAR"}],"materials":[{"pbrMetallicRoughness":{"metallicFactor":0,"roughnessFactor":1,"baseColorTexture":{"index":0}},"alphaMode":"MASK","alphaCutoff":0.01,"doubleSided":true,"name":"texture_2"}],"textures":[{"sampler":0,"source":0,"name":"texture_2"}],"samplers":[{"magFilter":9728,"minFilter":9728,"wrapS":33071,"wrapT":33071}],"images":[{"mimeType":"image/png","uri":"data:image/png;base64,"}],"meshes":[{"primitives":[{"mode":4,"attributes":{"POSITION":0,"NORMAL":1,"TEXCOORD_0":2},"indices":3,"material":0}]}]}