{"asset":{"version":"2.0","generator":"THREE.GLTFExporter"},"scenes":[{"name":"default","nodes":[0]}],"scene":0,"nodes":[{"name":"wieza-1","extras":{"data":{"name":"wieza-1","points":[{"name":"Origin","pos":{"x":0,"y":0,"z":0}}],"billboard":{"enabled":false,"y":false},"directional":{"enabled":false,"mode":"cameraAngle","angles":[]},"custom":[],"instances":[{"name":"wieza-1","uuid":"8C9CC5A0-01D9-4C2C-AC7B-60141B8B480B","parent":null,"pos":{"x":0.25,"y":-4.5,"z":8.75},"rot":{"x":0,"y":0,"z":0,"order":"XYZ"},"sca":{"x":1,"y":1,"z":1},"custom":[]}]}},"mesh":0}],"bufferViews":[{"buffer":0,"byteOffset":0,"byteLength":5256,"target":34962,"byteStride":12},{"buffer":0,"byteOffset":5256,"byteLength":5256,"target":34962,"byteStride":12},{"buffer":0,"byteOffset":10512,"byteLength":3504,"target":34962,"byteStride":8},{"buffer":0,"byteOffset":14016,"byteLength":876,"target":34963}],"buffers":[{"byteLength":14892,"uri":"data:application/octet-stream;base64,"}],"accessors":[{"bufferView":0,"componentType":5126,"count":438,"max":[1.25,2.5,0.25],"min":[-1.75,0,-2.75],"type":"VEC3"},{"bufferView":1,"componentType":5126,"count":438,"max":[1,1,1],"min":[-1,0,-1],"type":"VEC3"},{"bufferView":2,"componentType":5126,"count":438,"max":[0.5,0.625],"min":[0.125,0.3125],"type":"VEC2"},{"bufferView":3,"componentType":5123,"count":438,"max":[437],"min":[0],"type":"SCALAR"}],"materials":[{"pbrMetallicRoughness":{"metallicFactor":0,"roughnessFactor":1,"baseColorTexture":{"index":0}},"alphaMode":"MASK","alphaCutoff":0.01,"doubleSided":true,"name":"texture_1"}],"textures":[{"sampler":0,"source":0,"name":"texture_1"}],"samplers":[{"magFilter":9728,"minFilter":9728,"wrapS":33071,"wrapT":33071}],"images":[{"mimeType":"image/png","uri":"data:image/png;base64,"}],"meshes":[{"primitives":[{"mode":4,"attributes":{"POSITION":0,"NORMAL":1,"TEXCOORD_0":2},"indices":3,"material":0}]}]}